<svg width="23" height="24" viewBox="0 0 23 24" fill="none" xmlns="http://www.w3.org/2000/svg">
<g clip-path="url(#clip0_53_1632)">
<path d="M18.2083 13H4.79167C3.73312 13 2.875 13.8954 2.875 15V19C2.875 20.1046 3.73312 21 4.79167 21H18.2083C19.2669 21 20.125 20.1046 20.125 19V15C20.125 13.8954 19.2669 13 18.2083 13Z" stroke="#38D700" stroke-width="1.5" stroke-linecap="round" stroke-linejoin="round"/>
<path d="M16.292 17V17.01" stroke="#38D700" stroke-width="1.5" stroke-linecap="round" stroke-linejoin="round"/>
<path d="M12.458 17V17.01" stroke="#38D700" stroke-width="1.5" stroke-linecap="round" stroke-linejoin="round"/>
<path d="M14.375 13V11" stroke="#38D700" stroke-width="1.5" stroke-linecap="round" stroke-linejoin="round"/>
<path d="M11.2607 8.75C11.6156 8.23385 12.0833 7.81333 12.6249 7.52324C13.1665 7.23315 13.7665 7.08185 14.3753 7.08185C14.9841 7.08185 15.5842 7.23315 16.1258 7.52324C16.6674 7.81333 17.135 8.23385 17.4899 8.75" stroke="#38D700" stroke-width="1.5" stroke-linecap="round" stroke-linejoin="round"/>
<path d="M8.14551 6.50001C8.85532 5.4677 9.79054 4.62665 10.8738 4.04648C11.957 3.46631 13.1571 3.1637 14.3747 3.1637C15.5923 3.1637 16.7923 3.46631 17.8756 4.04648C18.9588 4.62665 19.894 5.4677 20.6038 6.50001" stroke="#38D700" stroke-width="1.5" stroke-linecap="round" stroke-linejoin="round"/>
</g>
<defs>
<clipPath id="clip0_53_1632">
<rect width="23" height="24" fill="white"/>
</clipPath>
</defs>
</svg>
