<svg width="14" height="16" viewBox="0 0 14 16" fill="none" xmlns="http://www.w3.org/2000/svg">
<g clip-path="url(#clip0_53_1686)">
<path d="M7 12H7.00667" stroke="#C9C9C9" stroke-linecap="round" stroke-linejoin="round"/>
<path d="M5.35059 10.1147C5.78815 9.61474 6.38154 9.3339 7.00025 9.3339C7.61897 9.3339 8.21235 9.61474 8.64992 10.1147" stroke="#C9C9C9" stroke-linecap="round" stroke-linejoin="round"/>
<path d="M3.7002 8.22867C4.31878 7.51971 5.10018 7.02513 5.9542 6.802M8.38261 6.90534C9.10749 7.16402 9.76584 7.62182 10.3 8.23867" stroke="#C9C9C9" stroke-linecap="round" stroke-linejoin="round"/>
<path d="M2.05078 6.34334C2.64779 5.65962 3.3482 5.10512 4.11811 4.70667M5.92703 4.09334C7.015 3.90054 8.12742 4.00375 9.17393 4.39458C10.2204 4.78541 11.1715 5.45285 11.9499 6.34267" stroke="#C9C9C9" stroke-linecap="round" stroke-linejoin="round"/>
<path d="M1.75 2L12.25 14" stroke="#C9C9C9" stroke-linecap="round" stroke-linejoin="round"/>
</g>
<defs>
<clipPath id="clip0_53_1686">
<rect width="14" height="16" fill="white"/>
</clipPath>
</defs>
</svg>
