<svg width="110" height="110" viewBox="0 0 110 110" fill="none" xmlns="http://www.w3.org/2000/svg">
<g clip-path="url(#clip0_384_3035)">
<path d="M77.9165 15.3084C84.8294 19.2998 90.58 25.0275 94.599 31.9244C98.618 38.8213 100.766 46.6482 100.831 54.6304C100.895 62.6126 98.8737 70.4732 94.9666 77.4341C91.0595 84.395 85.4022 90.2148 78.5547 94.3174C71.7072 98.42 63.9069 100.663 55.9261 100.825C47.9453 100.986 40.0607 99.0604 33.0528 95.2383C26.0449 91.4161 20.1567 85.83 15.9712 79.0329C11.7857 72.2357 9.44796 64.4633 9.18942 56.4851L9.1665 55.0001L9.18942 53.5151C9.4461 45.5996 11.7494 37.8857 15.8749 31.1255C20.0003 24.3652 25.807 18.7892 32.7289 14.9412C39.6509 11.0932 47.4518 9.1044 55.3711 9.16875C63.2905 9.2331 71.058 11.3484 77.9165 15.3084ZM71.9903 42.593C71.201 41.8039 70.151 41.3298 69.0371 41.2598C67.9233 41.1897 66.8221 41.5285 65.9403 42.2126L65.5094 42.593L50.4165 57.6813L44.4903 51.7597L44.0594 51.3792C43.1775 50.6957 42.0765 50.3573 40.9629 50.4275C39.8493 50.4978 38.7996 50.9719 38.0106 51.7609C37.2216 52.5499 36.7475 53.5996 36.6773 54.7132C36.607 55.8268 36.9454 56.9278 37.629 57.8097L38.0094 58.2405L47.1761 67.4072L47.6069 67.7876C48.4107 68.4112 49.3992 68.7497 50.4165 68.7497C51.4339 68.7497 52.4223 68.4112 53.2261 67.7876L53.6569 67.4072L71.9903 49.0738L72.3707 48.643C73.0547 47.7611 73.3935 46.66 73.3235 45.5461C73.2535 44.4323 72.7794 43.3822 71.9903 42.593Z" fill="#00B49A"/>
</g>
<defs>
<clipPath id="clip0_384_3035">
<rect width="110" height="110" fill="white"/>
</clipPath>
</defs>
</svg>
