<svg width="110" height="110" viewBox="0 0 110 110" fill="none" xmlns="http://www.w3.org/2000/svg">
<g clip-path="url(#clip0_384_3048)">
<path d="M77.917 15.3084C84.8299 19.2998 90.5805 25.0275 94.5995 31.9244C98.6185 38.8213 100.767 46.6482 100.831 54.6304C100.896 62.6126 98.8742 70.4732 94.9671 77.4341C91.06 84.395 85.4027 90.2148 78.5552 94.3174C71.7077 98.42 63.9074 100.663 55.9266 100.825C47.9458 100.986 40.0612 99.0604 33.0533 95.2383C26.0454 91.4161 20.1572 85.83 15.9717 79.0329C11.7862 72.2357 9.44845 64.4633 9.18991 56.4851L9.16699 55.0001L9.18991 53.5151C9.44659 45.5996 11.7499 37.8857 15.8753 31.1255C20.0008 24.3652 25.8075 18.7892 32.7294 14.9412C39.6513 11.0932 47.4522 9.1044 55.3716 9.16875C63.291 9.2331 71.0585 11.3484 77.917 15.3084ZM48.1757 41.8917C47.2154 41.3201 46.0794 41.119 44.9812 41.3263C43.883 41.5336 42.8984 42.135 42.2126 43.0173C41.5267 43.8997 41.1869 45.0022 41.257 46.1176C41.3271 47.233 41.8023 48.2843 42.5932 49.0738L48.5149 55.0001L42.5932 60.9263L42.2128 61.3572C41.5005 62.2784 41.1656 63.4362 41.276 64.5954C41.3864 65.7546 41.934 66.8284 42.8074 67.5985C43.6808 68.3687 44.8146 68.7775 45.9786 68.742C47.1425 68.7064 48.2493 68.2292 49.0741 67.4072L55.0003 61.4855L60.9266 67.4072L61.3574 67.7876C62.2786 68.4999 63.4364 68.8348 64.5957 68.7244C65.7549 68.614 66.8286 68.0664 67.5988 67.193C68.3689 66.3196 68.7777 65.1858 68.7422 64.0218C68.7067 62.8579 68.2294 61.7511 67.4074 60.9263L61.4857 55.0001L67.4074 49.0738L67.7878 48.643C68.5001 47.7218 68.8351 46.564 68.7247 45.4048C68.6142 44.2455 68.0667 43.1718 67.1933 42.4016C66.3198 41.6315 65.186 41.2227 64.0221 41.2582C62.8582 41.2937 61.7514 41.771 60.9266 42.593L55.0003 48.5147L49.0741 42.593L48.6432 42.2126L48.1757 41.8917Z" fill="#FC1E14"/>
</g>
<defs>
<clipPath id="clip0_384_3048">
<rect width="110" height="110" fill="white"/>
</clipPath>
</defs>
</svg>
