<svg width="268" height="207" viewBox="0 0 268 207" fill="none" xmlns="http://www.w3.org/2000/svg">
<circle cx="134.5" cy="103.5" r="102" fill="#D9D9D9" stroke="#FC1E14" stroke-width="3"/>
<path d="M208.849 27.3844C207.635 27.2687 206.536 28.1364 206.362 29.2933L195.14 115.891L202.428 116.701L210.816 29.7561C210.932 28.5992 210.064 27.5001 208.849 27.3844Z" fill="#263238" stroke="#263238" stroke-miterlimit="10" stroke-linecap="round" stroke-linejoin="round"/>
<path d="M96.1051 27.3844C97.3199 27.2687 98.419 28.1364 98.5925 29.2933L109.815 115.891L102.526 116.701L94.1383 29.7561C94.0226 28.5992 94.8903 27.5001 96.1051 27.3844Z" fill="#263238" stroke="#263238" stroke-miterlimit="10" stroke-linecap="round" stroke-linejoin="round"/>
<path d="M221.75 159.276H107.617C106.171 159.276 104.956 158.061 104.956 156.615V116.816C104.956 115.37 106.171 114.155 107.617 114.155H221.75C223.196 114.155 224.411 115.37 224.411 116.816V156.615C224.411 158.119 223.196 159.276 221.75 159.276Z" fill="white" stroke="#263238" stroke-miterlimit="10" stroke-linecap="round" stroke-linejoin="round"/>
<path d="M224.526 153.723H104.84C103.509 153.723 102.41 152.624 102.41 151.293V122.138C102.41 120.808 103.509 119.708 104.84 119.708H224.468C225.799 119.708 226.898 120.808 226.898 122.138V151.293C226.898 152.682 225.857 153.723 224.526 153.723Z" fill="white" stroke="#263238" stroke-miterlimit="10" stroke-linecap="round" stroke-linejoin="round"/>
<path d="M159.102 159.276H44.9686C43.5224 159.276 42.3076 158.061 42.3076 156.615V116.816C42.3076 115.37 43.5224 114.155 44.9686 114.155H159.102C160.548 114.155 161.763 115.37 161.763 116.816V156.615C161.763 158.119 160.548 159.276 159.102 159.276Z" fill="white" stroke="#263238" stroke-miterlimit="10" stroke-linecap="round" stroke-linejoin="round"/>
<path d="M161.878 153.723H42.1913C40.8608 153.723 39.7617 152.624 39.7617 151.293V122.138C39.7617 120.808 40.8608 119.708 42.1913 119.708H161.82C163.15 119.708 164.249 120.808 164.249 122.138V151.293C164.307 152.682 163.208 153.723 161.878 153.723Z" fill="white" stroke="#263238" stroke-miterlimit="10" stroke-linecap="round" stroke-linejoin="round"/>
<path d="M151.986 145.451H53.1824C51.5627 145.451 50.29 144.179 50.29 142.559V130.064C50.29 128.444 51.5627 127.171 53.1824 127.171H151.986C153.606 127.171 154.878 128.444 154.878 130.064V142.559C154.878 144.179 153.606 145.451 151.986 145.451Z" fill="#263238" stroke="#263238" stroke-miterlimit="10" stroke-linecap="round" stroke-linejoin="round"/>
<path d="M56.0747 131.625C54.2814 132.32 53.0088 134.113 53.0088 136.138C53.0088 138.799 55.207 140.997 57.868 140.997C60.529 140.997 62.7272 138.799 62.7272 136.138C62.7272 134.113 61.5124 132.378 59.7769 131.683" stroke="#92E3A9" stroke-miterlimit="10" stroke-linecap="round"/>
<path d="M57.9258 129.774V133.36" stroke="#92E3A9" stroke-miterlimit="10" stroke-linecap="round"/>
<path d="M1 159.276H267.156" stroke="#263238" stroke-miterlimit="10" stroke-linecap="round" stroke-linejoin="round"/>
<line x1="58.0607" y1="36.9393" x2="201.061" y2="179.939" stroke="#FC1E14" stroke-width="3"/>
</svg>
