<svg width="270" height="190" viewBox="0 0 270 190" fill="none" xmlns="http://www.w3.org/2000/svg">
<path d="M167.457 0.02571C191.753 0.430642 212.058 9.62838 228.081 28.0817C230.28 30.627 229.99 34.0979 227.561 36.1804C225.247 38.1472 221.776 37.9158 219.636 35.4284C213.851 28.6602 207.083 23.1068 199.215 18.9418C174.457 5.92615 144.897 9.16561 123.551 27.1562C120.601 29.6436 117.998 32.536 115.337 35.3127C113.023 37.7422 109.668 38.1472 107.238 36.0647C104.866 33.9822 104.635 30.5113 106.833 27.966C120.254 12.4629 137.087 3.26516 157.392 0.488487C159.011 0.257097 160.573 0.0835574 162.193 0.02571C163.928 -0.0321375 165.664 0.02571 167.457 0.02571Z" fill="#92E3A9"/>
<path d="M169.424 22.5864C184.812 22.9914 199.273 29.5281 210.612 42.7173C212.868 45.3205 212.578 48.6756 210.091 50.816C207.719 52.8406 204.306 52.5514 202.108 50.064C196.15 43.1801 188.977 38.1474 180.242 35.7756C162.367 30.9743 146.922 35.3707 133.964 48.5599C133.501 49.0806 133.038 49.6012 132.575 50.1218C130.435 52.5514 126.964 52.8406 124.65 50.8738C122.163 48.7913 121.931 45.3205 124.072 42.7752C129.162 36.8169 135.178 32.0734 142.178 28.5447C150.219 24.4954 158.607 22.5864 169.424 22.5864Z" fill="#92E3A9"/>
<path d="M194.761 60.9967C194.761 63.3106 193.315 65.3931 191.175 66.2609C188.977 67.1286 186.547 66.5501 184.927 64.699C182.498 61.9801 179.721 59.7241 176.366 58.3358C167.11 54.4021 156.929 56.8317 150.103 64.5833C148.483 66.4344 146.459 67.0707 144.087 66.3766C141.831 65.6824 140.5 64.0627 140.153 61.7488C139.922 60.129 140.385 58.625 141.484 57.3523C153.227 43.1797 174.862 41.1551 188.977 53.0138C190.596 54.3443 192.1 55.8483 193.431 57.468C194.241 58.3936 194.53 59.7241 195.108 60.881C194.935 60.9389 194.819 60.9967 194.761 60.9967Z" fill="#92E3A9"/>
<path d="M167.4 90.5571C161.094 90.5571 156.062 85.5822 156.062 79.2768C156.062 73.0872 161.094 68.0544 167.342 67.9966C173.589 67.9966 178.68 73.0293 178.622 79.3347C178.68 85.5822 173.647 90.5571 167.4 90.5571Z" fill="#92E3A9"/>
<path d="M44.5419 147.106C48.5994 147.106 51.8886 138.481 51.8886 127.842C51.8886 117.204 48.5994 108.579 44.5419 108.579C40.4845 108.579 37.1953 117.204 37.1953 127.842C37.1953 138.481 40.4845 147.106 44.5419 147.106Z" fill="#92E3A9" stroke="#263238" stroke-miterlimit="10"/>
<path d="M67.3445 115.97C69.6372 108.753 68.9533 102.095 65.817 101.099C62.6806 100.102 58.2795 105.145 55.9868 112.361C53.6941 119.578 54.3779 126.236 57.5143 127.232C60.6506 128.229 65.0518 123.186 67.3445 115.97Z" fill="#92E3A9" stroke="#263238" stroke-miterlimit="10"/>
<path d="M13.5361 159.485C6.07373 158.212 0.462527 154.568 1.041 151.328C1.61948 148.089 8.09839 146.469 15.5607 147.742C23.023 149.014 28.6342 152.659 28.0558 155.898C27.4773 159.196 20.9984 160.757 13.5361 159.485Z" fill="#92E3A9" stroke="#263238" stroke-miterlimit="10"/>
<path d="M74.218 141.726C67.9705 147.915 60.6238 150.576 57.7893 147.742C54.9548 144.849 57.6736 137.503 63.9211 131.313C70.1687 125.123 77.5153 122.462 80.3498 125.297C83.2422 128.189 80.4655 135.536 74.218 141.726Z" fill="#92E3A9" stroke="#263238" stroke-miterlimit="10"/>
<path d="M31.295 124.776C37.3111 133.511 39.1044 142.767 35.2865 145.37C31.4685 147.973 23.4856 143.056 17.4694 134.263C11.4533 125.528 9.66003 116.273 13.478 113.67C17.238 111.067 25.221 115.984 31.295 124.776Z" fill="#92E3A9" stroke="#263238" stroke-miterlimit="10"/>
<path d="M45.063 146.122L45.6415 172.616" stroke="#263238" stroke-miterlimit="10" stroke-linecap="round"/>
<path d="M44.3687 120.727L45.0628 146.122" stroke="#263238" stroke-miterlimit="10" stroke-linecap="round"/>
<path d="M44.4265 116.562L44.3687 118.528" stroke="#263238" stroke-miterlimit="10" stroke-linecap="round"/>
<path d="M35.229 144.097C38.9312 151.791 41.8815 161.22 42.4599 171.864" stroke="#263238" stroke-miterlimit="10" stroke-linecap="round"/>
<path d="M22.6763 124.834C26.0893 128.768 31.122 135.362 35.287 144.097" stroke="#263238" stroke-miterlimit="10" stroke-linecap="round"/>
<path d="M18.6841 120.669C18.6841 120.669 19.4361 121.363 20.7087 122.694" stroke="#263238" stroke-miterlimit="10" stroke-linecap="round"/>
<path d="M58.2525 146.816C53.9718 152.716 49.6911 160.468 46.3359 170.418" stroke="#263238" stroke-miterlimit="10" stroke-linecap="round"/>
<path d="M66.6977 137.156C64.0945 139.585 61.2022 142.825 58.252 146.874" stroke="#263238" stroke-miterlimit="10" stroke-linecap="round"/>
<path d="M75.6642 130.272C75.6642 130.272 73.0611 131.602 69.2432 134.842" stroke="#263238" stroke-miterlimit="10" stroke-linecap="round"/>
<path d="M57.9051 125.471C53.8557 138.255 48.3602 157.171 45.8149 173.542" stroke="#263238" stroke-miterlimit="10" stroke-linecap="round"/>
<path d="M60.3927 117.893C59.6985 120.033 58.8308 122.636 57.9053 125.471" stroke="#263238" stroke-miterlimit="10" stroke-linecap="round"/>
<path d="M62.9375 110.545C62.9375 110.545 62.2434 112.512 61.0864 115.867" stroke="#263238" stroke-miterlimit="10" stroke-linecap="round"/>
<path d="M27.6509 154.163C32.7415 156.072 37.6585 159.774 40.0881 166.831" stroke="#263238" stroke-miterlimit="10" stroke-linecap="round"/>
<path d="M18.2798 152.254C20.9986 152.427 24.3538 152.89 27.6511 154.163" stroke="#263238" stroke-miterlimit="10" stroke-linecap="round"/>
<path d="M12.2056 152.369C12.2056 152.369 13.1311 152.254 14.5773 152.196" stroke="#263238" stroke-miterlimit="10" stroke-linecap="round"/>
<path d="M77.3996 159.485C84.8619 158.212 90.4731 154.568 89.8946 151.328C89.3162 148.089 82.8372 146.469 75.3749 147.742C67.9126 149.014 62.3014 152.659 62.8799 155.898C63.4583 159.196 69.9373 160.757 77.3996 159.485Z" fill="#92E3A9" stroke="#263238" stroke-miterlimit="10"/>
<path d="M63.4003 154.105C58.2519 156.014 53.2191 159.716 50.7896 166.831" stroke="#263238" stroke-miterlimit="10" stroke-linecap="round"/>
<path d="M73.408 152.196C70.5735 152.311 66.9869 152.774 63.4004 154.105" stroke="#263238" stroke-miterlimit="10" stroke-linecap="round"/>
<path d="M78.7301 152.369C78.7301 152.369 78.1516 152.311 77.1104 152.196" stroke="#263238" stroke-miterlimit="10" stroke-linecap="round"/>
<path d="M63.3428 189.276C65.541 184.706 66.8137 179.384 66.8137 174.12C66.8137 170.881 66.2931 167.757 65.4253 164.865H26.3205C25.4528 167.757 24.9321 170.881 24.9321 174.12C24.9321 179.384 26.2048 184.706 28.403 189.276H63.3428Z" fill="#263238"/>
<path d="M25.3371 169.203C25.2214 169.897 25.1635 170.649 25.0479 171.343H66.6402C66.5823 170.591 66.4666 169.897 66.3509 169.203H25.3371Z" fill="#7A7A7A"/>
<path d="M66.2353 180.31C66.351 179.616 66.4667 178.864 66.5824 178.169H25.1636C25.2214 178.921 25.3371 179.616 25.5107 180.31H66.2353Z" fill="#7A7A7A"/>
<path d="M29.9645 174.294C29.9645 175.219 29.2125 175.971 28.287 175.971C27.3614 175.971 26.6094 175.219 26.6094 174.294C26.6094 173.368 27.3614 172.616 28.287 172.616C29.2125 172.616 29.9645 173.368 29.9645 174.294Z" fill="#8C8C8C"/>
<path d="M38.4103 174.294C38.4103 175.219 37.6583 175.971 36.7328 175.971C35.8072 175.971 35.0552 175.219 35.0552 174.294C35.0552 173.368 35.8072 172.616 36.7328 172.616C37.6583 172.616 38.4103 173.368 38.4103 174.294Z" fill="#8C8C8C"/>
<path d="M46.8561 174.294C46.8561 175.219 46.1041 175.971 45.1786 175.971C44.253 175.971 43.501 175.219 43.501 174.294C43.501 173.368 44.253 172.616 45.1786 172.616C46.1041 172.616 46.8561 173.368 46.8561 174.294Z" fill="#8C8C8C"/>
<path d="M53.5667 175.971C54.4932 175.971 55.2443 175.22 55.2443 174.294C55.2443 173.367 54.4932 172.616 53.5667 172.616C52.6402 172.616 51.8892 173.367 51.8892 174.294C51.8892 175.22 52.6402 175.971 53.5667 175.971Z" fill="#8C8C8C"/>
<path d="M63.6896 174.294C63.6896 175.219 62.9376 175.971 62.0121 175.971C61.0865 175.971 60.3345 175.219 60.3345 174.294C60.3345 173.368 61.0865 172.616 62.0121 172.616C62.8798 172.616 63.6896 173.368 63.6896 174.294Z" fill="#8C8C8C"/>
<path d="M221.497 57.3844C220.283 57.2687 219.184 58.1364 219.01 59.2933L207.788 145.891L215.076 146.701L223.464 59.7561C223.58 58.5992 222.712 57.5001 221.497 57.3844Z" fill="#263238" stroke="#263238" stroke-miterlimit="10" stroke-linecap="round" stroke-linejoin="round"/>
<path d="M108.753 57.3844C109.967 57.2687 111.066 58.1364 111.24 59.2933L122.462 145.891L115.174 146.701L106.786 59.7561C106.67 58.5992 107.538 57.5001 108.753 57.3844Z" fill="#263238" stroke="#263238" stroke-miterlimit="10" stroke-linecap="round" stroke-linejoin="round"/>
<path d="M234.397 189.276H120.264C118.818 189.276 117.603 188.061 117.603 186.615V146.816C117.603 145.37 118.818 144.155 120.264 144.155H234.397C235.843 144.155 237.058 145.37 237.058 146.816V186.615C237.058 188.119 235.843 189.276 234.397 189.276Z" fill="white" stroke="#263238" stroke-miterlimit="10" stroke-linecap="round" stroke-linejoin="round"/>
<path d="M237.174 183.723H117.487C116.157 183.723 115.058 182.624 115.058 181.293V152.138C115.058 150.808 116.157 149.708 117.487 149.708H237.116C238.446 149.708 239.545 150.808 239.545 152.138V181.293C239.545 182.682 238.504 183.723 237.174 183.723Z" fill="white" stroke="#263238" stroke-miterlimit="10" stroke-linecap="round" stroke-linejoin="round"/>
<path d="M171.749 189.276H57.6156C56.1694 189.276 54.9546 188.061 54.9546 186.615V146.816C54.9546 145.37 56.1694 144.155 57.6156 144.155H171.749C173.195 144.155 174.41 145.37 174.41 146.816V186.615C174.41 188.119 173.195 189.276 171.749 189.276Z" fill="white" stroke="#263238" stroke-miterlimit="10" stroke-linecap="round" stroke-linejoin="round"/>
<path d="M174.525 183.723H54.8388C53.5083 183.723 52.4092 182.624 52.4092 181.293V152.138C52.4092 150.808 53.5083 149.708 54.8388 149.708H174.467C175.798 149.708 176.897 150.808 176.897 152.138V181.293C176.955 182.682 175.856 183.723 174.525 183.723Z" fill="white" stroke="#263238" stroke-miterlimit="10" stroke-linecap="round" stroke-linejoin="round"/>
<path d="M164.633 175.451H65.8294C64.2097 175.451 62.937 174.179 62.937 172.559V160.064C62.937 158.444 64.2097 157.171 65.8294 157.171H164.633C166.253 157.171 167.525 158.444 167.525 160.064V172.559C167.525 174.179 166.253 175.451 164.633 175.451Z" fill="#263238" stroke="#263238" stroke-miterlimit="10" stroke-linecap="round" stroke-linejoin="round"/>
<path d="M68.7222 161.625C66.9289 162.32 65.6562 164.113 65.6562 166.138C65.6562 168.799 67.8545 170.997 70.5154 170.997C73.1764 170.997 75.3746 168.799 75.3746 166.138C75.3746 164.113 74.1598 162.378 72.4244 161.683" stroke="#92E3A9" stroke-miterlimit="10" stroke-linecap="round"/>
<path d="M70.5732 159.774V163.36" stroke="#92E3A9" stroke-miterlimit="10" stroke-linecap="round"/>
<path d="M3.23877 189.276H269.395" stroke="#263238" stroke-miterlimit="10" stroke-linecap="round" stroke-linejoin="round"/>
</svg>
