<svg width="270" height="195" viewBox="0 0 270 195" fill="none" xmlns="http://www.w3.org/2000/svg">
<g clip-path="url(#clip0_388_4399)">
<path d="M167 75H167.042" stroke="#FC1E14" stroke-width="6.25" stroke-linecap="round" stroke-linejoin="round"/>
<path d="M155.217 63.2167C158.342 60.0922 162.581 58.3369 167 58.3369C171.42 58.3369 175.658 60.0922 178.783 63.2167" stroke="#FC1E14" stroke-width="6.25" stroke-linecap="round" stroke-linejoin="round"/>
<path d="M143.429 51.4294C147.848 46.9984 153.429 43.9072 159.529 42.5127M176.875 43.1585C182.053 44.7753 186.755 47.6366 190.571 51.4919" stroke="#FC1E14" stroke-width="6.25" stroke-linecap="round" stroke-linejoin="round"/>
<path d="M131.646 39.6456C135.91 35.3724 140.913 31.9068 146.413 29.4165M159.333 25.5831C167.105 24.3781 175.051 25.0232 182.526 27.4659C190.001 29.9086 196.794 34.0801 202.354 39.6415" stroke="#FC1E14" stroke-width="6.25" stroke-linecap="round" stroke-linejoin="round"/>
<path d="M136 16L191 75" stroke="#FC1E14" stroke-width="6.25" stroke-linecap="round" stroke-linejoin="round"/>
</g>
<path d="M44.5419 152.106C48.5994 152.106 51.8886 143.481 51.8886 132.842C51.8886 122.204 48.5994 113.579 44.5419 113.579C40.4845 113.579 37.1953 122.204 37.1953 132.842C37.1953 143.481 40.4845 152.106 44.5419 152.106Z" fill="#92E3A9" stroke="#263238" stroke-miterlimit="10"/>
<path d="M67.3445 120.97C69.6372 113.753 68.9533 107.095 65.817 106.099C62.6806 105.102 58.2795 110.145 55.9868 117.361C53.6941 124.578 54.3779 131.236 57.5143 132.232C60.6506 133.229 65.0518 128.186 67.3445 120.97Z" fill="#92E3A9" stroke="#263238" stroke-miterlimit="10"/>
<path d="M13.5361 164.485C6.07373 163.212 0.462527 159.568 1.041 156.328C1.61948 153.089 8.09839 151.469 15.5607 152.742C23.023 154.014 28.6342 157.659 28.0558 160.898C27.4773 164.196 20.9984 165.757 13.5361 164.485Z" fill="#92E3A9" stroke="#263238" stroke-miterlimit="10"/>
<path d="M74.218 146.726C67.9705 152.915 60.6238 155.576 57.7893 152.742C54.9548 149.849 57.6736 142.503 63.9211 136.313C70.1687 130.123 77.5153 127.462 80.3498 130.297C83.2422 133.189 80.4655 140.536 74.218 146.726Z" fill="#92E3A9" stroke="#263238" stroke-miterlimit="10"/>
<path d="M31.295 129.776C37.3111 138.511 39.1044 147.767 35.2865 150.37C31.4685 152.973 23.4856 148.056 17.4694 139.263C11.4533 130.528 9.66003 121.273 13.478 118.67C17.238 116.067 25.221 120.984 31.295 129.776Z" fill="#92E3A9" stroke="#263238" stroke-miterlimit="10"/>
<path d="M45.063 151.122L45.6415 177.616" stroke="#263238" stroke-miterlimit="10" stroke-linecap="round"/>
<path d="M44.3687 125.727L45.0628 151.122" stroke="#263238" stroke-miterlimit="10" stroke-linecap="round"/>
<path d="M44.4265 121.562L44.3687 123.528" stroke="#263238" stroke-miterlimit="10" stroke-linecap="round"/>
<path d="M35.229 149.097C38.9312 156.791 41.8815 166.22 42.4599 176.864" stroke="#263238" stroke-miterlimit="10" stroke-linecap="round"/>
<path d="M22.6763 129.834C26.0893 133.768 31.122 140.362 35.287 149.097" stroke="#263238" stroke-miterlimit="10" stroke-linecap="round"/>
<path d="M18.6841 125.669C18.6841 125.669 19.4361 126.363 20.7087 127.694" stroke="#263238" stroke-miterlimit="10" stroke-linecap="round"/>
<path d="M58.2525 151.816C53.9718 157.716 49.6911 165.468 46.3359 175.418" stroke="#263238" stroke-miterlimit="10" stroke-linecap="round"/>
<path d="M66.6977 142.156C64.0945 144.585 61.2022 147.825 58.252 151.874" stroke="#263238" stroke-miterlimit="10" stroke-linecap="round"/>
<path d="M75.6642 135.272C75.6642 135.272 73.0611 136.602 69.2432 139.842" stroke="#263238" stroke-miterlimit="10" stroke-linecap="round"/>
<path d="M57.9051 130.471C53.8557 143.255 48.3602 162.171 45.8149 178.542" stroke="#263238" stroke-miterlimit="10" stroke-linecap="round"/>
<path d="M60.3927 122.893C59.6985 125.033 58.8308 127.636 57.9053 130.471" stroke="#263238" stroke-miterlimit="10" stroke-linecap="round"/>
<path d="M62.9375 115.545C62.9375 115.545 62.2434 117.512 61.0864 120.867" stroke="#263238" stroke-miterlimit="10" stroke-linecap="round"/>
<path d="M27.6509 159.163C32.7415 161.072 37.6585 164.774 40.0881 171.831" stroke="#263238" stroke-miterlimit="10" stroke-linecap="round"/>
<path d="M18.2798 157.254C20.9986 157.427 24.3538 157.89 27.6511 159.163" stroke="#263238" stroke-miterlimit="10" stroke-linecap="round"/>
<path d="M12.2056 157.369C12.2056 157.369 13.1311 157.254 14.5773 157.196" stroke="#263238" stroke-miterlimit="10" stroke-linecap="round"/>
<path d="M77.3996 164.485C84.8619 163.212 90.4731 159.568 89.8946 156.328C89.3162 153.089 82.8372 151.469 75.3749 152.742C67.9126 154.014 62.3014 157.659 62.8799 160.898C63.4583 164.196 69.9373 165.757 77.3996 164.485Z" fill="#92E3A9" stroke="#263238" stroke-miterlimit="10"/>
<path d="M63.4003 159.105C58.2519 161.014 53.2191 164.716 50.7896 171.831" stroke="#263238" stroke-miterlimit="10" stroke-linecap="round"/>
<path d="M73.408 157.196C70.5735 157.311 66.9869 157.774 63.4004 159.105" stroke="#263238" stroke-miterlimit="10" stroke-linecap="round"/>
<path d="M78.7301 157.369C78.7301 157.369 78.1516 157.311 77.1104 157.196" stroke="#263238" stroke-miterlimit="10" stroke-linecap="round"/>
<path d="M63.3428 194.276C65.541 189.706 66.8137 184.384 66.8137 179.12C66.8137 175.881 66.2931 172.757 65.4253 169.865H26.3205C25.4528 172.757 24.9321 175.881 24.9321 179.12C24.9321 184.384 26.2048 189.706 28.403 194.276H63.3428Z" fill="#263238"/>
<path d="M25.3371 174.203C25.2214 174.897 25.1635 175.649 25.0479 176.343H66.6402C66.5823 175.591 66.4666 174.897 66.3509 174.203H25.3371Z" fill="#7A7A7A"/>
<path d="M66.2353 185.31C66.351 184.616 66.4667 183.864 66.5824 183.169H25.1636C25.2214 183.921 25.3371 184.616 25.5107 185.31H66.2353Z" fill="#7A7A7A"/>
<path d="M29.9645 179.294C29.9645 180.219 29.2125 180.971 28.287 180.971C27.3614 180.971 26.6094 180.219 26.6094 179.294C26.6094 178.368 27.3614 177.616 28.287 177.616C29.2125 177.616 29.9645 178.368 29.9645 179.294Z" fill="#8C8C8C"/>
<path d="M38.4103 179.294C38.4103 180.219 37.6583 180.971 36.7328 180.971C35.8072 180.971 35.0552 180.219 35.0552 179.294C35.0552 178.368 35.8072 177.616 36.7328 177.616C37.6583 177.616 38.4103 178.368 38.4103 179.294Z" fill="#8C8C8C"/>
<path d="M46.8561 179.294C46.8561 180.219 46.1041 180.971 45.1786 180.971C44.253 180.971 43.501 180.219 43.501 179.294C43.501 178.368 44.253 177.616 45.1786 177.616C46.1041 177.616 46.8561 178.368 46.8561 179.294Z" fill="#8C8C8C"/>
<path d="M53.5667 180.971C54.4932 180.971 55.2443 180.22 55.2443 179.294C55.2443 178.367 54.4932 177.616 53.5667 177.616C52.6402 177.616 51.8892 178.367 51.8892 179.294C51.8892 180.22 52.6402 180.971 53.5667 180.971Z" fill="#8C8C8C"/>
<path d="M63.6896 179.294C63.6896 180.219 62.9376 180.971 62.0121 180.971C61.0865 180.971 60.3345 180.219 60.3345 179.294C60.3345 178.368 61.0865 177.616 62.0121 177.616C62.8798 177.616 63.6896 178.368 63.6896 179.294Z" fill="#8C8C8C"/>
<path d="M221.497 62.3844C220.283 62.2687 219.184 63.1364 219.01 64.2933L207.788 150.891L215.076 151.701L223.464 64.7561C223.58 63.5992 222.712 62.5001 221.497 62.3844Z" fill="#263238" stroke="#263238" stroke-miterlimit="10" stroke-linecap="round" stroke-linejoin="round"/>
<path d="M108.753 62.3844C109.967 62.2687 111.066 63.1364 111.24 64.2933L122.462 150.891L115.174 151.701L106.786 64.7561C106.67 63.5992 107.538 62.5001 108.753 62.3844Z" fill="#263238" stroke="#263238" stroke-miterlimit="10" stroke-linecap="round" stroke-linejoin="round"/>
<path d="M234.397 194.276H120.264C118.818 194.276 117.603 193.061 117.603 191.615V151.816C117.603 150.37 118.818 149.155 120.264 149.155H234.397C235.843 149.155 237.058 150.37 237.058 151.816V191.615C237.058 193.119 235.843 194.276 234.397 194.276Z" fill="white" stroke="#263238" stroke-miterlimit="10" stroke-linecap="round" stroke-linejoin="round"/>
<path d="M237.174 188.723H117.487C116.157 188.723 115.058 187.624 115.058 186.293V157.138C115.058 155.808 116.157 154.708 117.487 154.708H237.116C238.446 154.708 239.545 155.808 239.545 157.138V186.293C239.545 187.682 238.504 188.723 237.174 188.723Z" fill="white" stroke="#263238" stroke-miterlimit="10" stroke-linecap="round" stroke-linejoin="round"/>
<path d="M171.749 194.276H57.6156C56.1694 194.276 54.9546 193.061 54.9546 191.615V151.816C54.9546 150.37 56.1694 149.155 57.6156 149.155H171.749C173.195 149.155 174.41 150.37 174.41 151.816V191.615C174.41 193.119 173.195 194.276 171.749 194.276Z" fill="white" stroke="#263238" stroke-miterlimit="10" stroke-linecap="round" stroke-linejoin="round"/>
<path d="M174.525 188.723H54.8388C53.5083 188.723 52.4092 187.624 52.4092 186.293V157.138C52.4092 155.808 53.5083 154.708 54.8388 154.708H174.467C175.798 154.708 176.897 155.808 176.897 157.138V186.293C176.955 187.682 175.856 188.723 174.525 188.723Z" fill="white" stroke="#263238" stroke-miterlimit="10" stroke-linecap="round" stroke-linejoin="round"/>
<path d="M164.633 180.451H65.8294C64.2097 180.451 62.937 179.179 62.937 177.559V165.064C62.937 163.444 64.2097 162.171 65.8294 162.171H164.633C166.253 162.171 167.525 163.444 167.525 165.064V177.559C167.525 179.179 166.253 180.451 164.633 180.451Z" fill="#263238" stroke="#263238" stroke-miterlimit="10" stroke-linecap="round" stroke-linejoin="round"/>
<path d="M68.7222 166.625C66.9289 167.32 65.6562 169.113 65.6562 171.138C65.6562 173.799 67.8545 175.997 70.5154 175.997C73.1764 175.997 75.3746 173.799 75.3746 171.138C75.3746 169.113 74.1598 167.378 72.4244 166.683" stroke="#FC1E14" stroke-miterlimit="10" stroke-linecap="round"/>
<path d="M70.5732 164.774V168.36" stroke="#FC1E14" stroke-miterlimit="10" stroke-linecap="round"/>
<path d="M3.23877 194.276H269.395" stroke="#263238" stroke-miterlimit="10" stroke-linecap="round" stroke-linejoin="round"/>
<defs>
<clipPath id="clip0_388_4399">
<rect width="100" height="100" fill="white" transform="translate(117)"/>
</clipPath>
</defs>
</svg>
